<svg width="438" height="318" viewBox="0 0 438 318" fill="none" xmlns="http://www.w3.org/2000/svg">
<path d="M11.7942 94.7287C18.3202 94.7287 23.5884 100.233 23.5884 106.995C23.5884 111.586 21.1442 115.511 17.5608 117.633C42.2409 164.158 70.4568 188.519 89.4178 182.645C109.47 176.228 119.01 119.583 112.532 62.1734C106.101 62.0747 100.904 56.6447 100.904 49.9312C100.904 43.1684 106.172 37.6644 112.698 37.6644C119.224 37.6644 124.492 43.1684 124.492 49.9312C124.492 55.3612 121.075 59.9027 116.376 61.5317C134.601 118.423 157.858 166.602 175.11 164.948C194.189 162.875 211.181 93.9882 216.995 24.3116C211.442 23.2996 207.218 18.3139 207.218 12.2668C207.218 5.50404 212.486 0 219.012 0C225.538 0 230.806 5.50404 230.806 12.2668C230.806 18.2892 226.606 23.2749 221.1 24.3116C226.914 93.9882 243.906 162.875 262.985 164.948C279.976 166.602 302.829 119.46 320.936 63.8764C316.166 62.2968 312.677 57.706 312.677 52.2266C312.677 45.4638 317.969 39.9598 324.472 39.9598C330.998 39.9598 336.266 45.4638 336.266 52.2266C336.266 58.7426 331.377 63.9998 325.207 64.4194C319.203 120.817 328.767 176.327 348.558 182.67C367.519 188.544 395.735 164.183 420.392 117.658C416.832 115.56 414.388 111.611 414.388 107.02C414.388 100.257 419.68 94.7533 426.182 94.7533C432.732 94.7533 438 100.257 438 107.02C438 113.783 432.732 119.287 426.206 119.287C425.589 119.287 425.019 119.188 424.426 119.09C396.471 208.758 397.634 262.367 397.586 267.304C397.586 267.427 397.61 267.55 397.61 267.674C397.61 295.466 317.637 318 219.012 318C120.363 318 40.4136 295.466 40.4136 267.674C40.4136 267.55 40.4373 267.427 40.4373 267.328C40.3899 262.54 41.6239 208.882 13.574 119.09C12.9807 119.188 12.4112 119.287 11.7942 119.287C5.29196 119.287 0 113.783 0 107.02C0 100.233 5.29196 94.7287 11.7942 94.7287ZM218.988 292.38C295.971 292.38 358.383 281.323 358.383 267.674C358.383 254.025 295.971 242.967 218.988 242.967C142.005 242.967 79.6169 254.025 79.6169 267.674C79.6169 281.323 142.005 292.38 218.988 292.38Z" fill="black"/>
</svg>
