<svg width="359" height="398" viewBox="0 0 359 398" fill="none" xmlns="http://www.w3.org/2000/svg">
<path d="M262.864 120.477C260.604 120.517 258.364 120.574 256.09 120.574C233.859 120.574 211.119 117.956 196.792 97.1678H162.206C147.879 117.956 125.139 120.574 102.908 120.574C100.628 120.574 98.3906 120.518 96.1337 120.477C98.1616 190.63 117.749 259.569 153.52 320.573L179.5 364.857L205.478 320.573C241.249 259.569 260.837 190.631 262.864 120.477ZM179.5 283.417C172.891 283.417 167.533 278.197 167.533 271.757C167.533 265.318 172.891 260.097 179.5 260.097C186.109 260.097 191.466 265.318 191.466 271.757C191.466 278.197 186.109 283.417 179.5 283.417ZM179.5 236.777C172.891 236.777 167.533 231.556 167.533 225.117C167.533 218.677 172.891 213.457 179.5 213.457C186.109 213.457 191.466 218.677 191.466 225.117C191.466 231.556 186.109 236.777 179.5 236.777ZM179.5 190.136C172.891 190.136 167.533 184.916 167.533 178.476C167.533 172.037 172.891 166.816 179.5 166.816C186.109 166.816 191.466 172.037 191.466 178.476C191.466 184.916 186.109 190.136 179.5 190.136ZM179.5 143.496C172.891 143.496 167.533 138.275 167.533 131.836C167.533 125.396 172.891 120.176 179.5 120.176C186.109 120.176 191.466 125.396 191.466 131.836C191.466 138.275 186.109 143.496 179.5 143.496Z" fill="black"/>
<path d="M167.533 27.2071H191.466V73.8476H167.533V27.2071Z" fill="black"/>
<path d="M95.7332 97.0124C120.616 97.4733 135.038 96.5055 143.6 82.2576V16.7534C132.891 11.2949 120.644 0.416731 108.3 0.00707154C101.462 -0.219912 95.7332 5.0458 95.7332 11.7123V97.0124Z" fill="black"/>
<path d="M215.4 82.2576C223.973 96.5071 238.375 97.6288 263.266 97.1678V11.7123C263.266 5.0427 257.533 -0.226128 250.692 0.00785206C238.361 0.428394 226.112 11.3275 215.4 16.7829V82.2576Z" fill="black"/>
<path d="M347.033 190.136H329.854C340.856 165.689 359.17 119.656 358.999 84.7055C358.98 80.961 356.869 77.5703 353.671 75.4932L287.2 32.315V108.515C287.2 186.973 266.183 264.072 226.229 332.189L189.888 394.144C188.934 395.772 187.516 397.006 185.958 397.999C186.129 397.965 186.302 397.949 186.453 397.844C204.111 385.558 359 275.629 359 201.797C359 195.352 353.647 190.136 347.033 190.136Z" fill="black"/>
<path d="M169.111 394.144L132.771 332.189C92.8166 264.072 71.7999 186.973 71.7999 108.515V32.315L5.32915 75.494C2.13166 77.571 0.0199451 80.9618 0.0015962 84.7063C-0.169926 119.656 18.1446 165.689 29.146 190.137H11.9667C5.35229 190.137 0 195.352 0 201.797C0 275.629 154.888 385.558 172.546 397.845C172.697 397.949 172.87 397.966 173.042 398C171.483 397.006 170.065 395.771 169.111 394.144Z" fill="black"/>
</svg>
